<?xml version="1.0" standalone="no"?>
<!DOCTYPE svg PUBLIC "-//W3C//DTD SVG 20010904//EN"
 "http://www.w3.org/TR/2001/REC-SVG-20010904/DTD/svg10.dtd">
<svg version="1.0" xmlns="http://www.w3.org/2000/svg"
 width="1280.000000pt" height="1280.000000pt" viewBox="0 0 1280.000000 1280.000000"
 preserveAspectRatio="xMidYMid meet">
<metadata>
Created by potrace 1.11, written by Peter Selinger 2001-2013
</metadata>
<g transform="translate(0.000000,1280.000000) scale(0.100000,-0.100000)"
fill="#000000" stroke="none">
<path d="M6707 9682 c-10 -10 -17 -24 -17 -31 0 -7 31 -45 69 -85 113 -117
209 -278 282 -473 36 -94 63 -243 45 -243 -3 0 -19 27 -35 60 -64 132 -182
262 -334 368 -110 76 -275 115 -497 115 -147 0 -184 -6 -400 -64 -332 -91
-559 -215 -822 -448 -141 -126 -352 -336 -616 -614 -139 -146 -332 -338 -430
-425 -185 -167 -227 -209 -306 -307 -27 -33 -50 -62 -52 -64 -2 -2 -11 12 -19
32 -23 56 -19 134 10 189 31 58 31 64 1 83 -34 23 -60 7 -92 -56 -46 -92 -43
-177 13 -299 13 -30 32 -63 40 -72 13 -15 10 -23 -34 -80 -26 -35 -61 -84 -76
-110 -15 -27 -31 -48 -35 -48 -20 0 -114 163 -139 241 -15 46 -32 87 -38 91
-22 16 -56 8 -66 -16 -22 -48 46 -215 137 -335 53 -71 53 -72 30 -81 -31 -11
-39 -26 -32 -55 7 -28 20 -33 134 -50 77 -11 200 -52 205 -68 1 -4 -28 -26
-65 -50 -91 -60 -123 -88 -142 -125 -34 -66 -12 -135 56 -178 38 -24 48 -26
116 -21 l73 6 -3 -302 -3 -302 -34 -80 c-59 -140 -71 -183 -71 -265 0 -71 4
-85 40 -156 60 -120 122 -174 198 -174 30 0 52 -30 52 -71 0 -34 19 -59 46
-59 20 0 23 -4 19 -22 -12 -48 -20 -237 -13 -313 4 -44 24 -133 44 -199 29
-94 34 -124 25 -138 -6 -10 -11 -42 -11 -72 0 -29 -7 -73 -15 -96 -23 -65 -20
-98 11 -112 19 -9 30 -9 44 0 26 16 34 0 22 -41 -17 -55 -23 -136 -12 -157 7
-12 21 -20 38 -20 22 0 33 -10 57 -51 17 -28 37 -55 46 -60 9 -4 20 -25 24
-46 4 -20 13 -50 22 -66 8 -16 11 -33 6 -37 -4 -4 -42 -19 -83 -33 -41 -14
-120 -42 -175 -62 -55 -21 -120 -43 -145 -51 -25 -7 -113 -34 -197 -59 -142
-42 -500 -194 -652 -276 -30 -16 -63 -29 -74 -29 -11 0 -38 -19 -60 -42 -34
-36 -38 -45 -34 -75 3 -19 2 -44 -4 -56 -10 -23 -10 -22 44 -212 23 -82 47
-204 61 -310 l5 -40 -117 -90 c-139 -106 -401 -365 -433 -427 -12 -24 -44 -67
-71 -97 -40 -44 -80 -106 -106 -163 -2 -5 91 -8 206 -8 l210 0 34 38 c19 20
83 82 144 136 60 55 122 112 137 128 15 15 32 28 36 28 5 0 11 -24 14 -52 3
-29 11 -104 18 -165 l12 -113 3378 0 3377 0 6 438 c6 450 6 462 14 462 3 0 28
-17 56 -38 28 -21 77 -57 109 -81 31 -23 94 -75 140 -115 45 -39 94 -81 108
-92 398 -297 416 -312 467 -380 56 -75 57 -79 17 -151 l-24 -43 59 0 c46 0 61
4 69 17 9 17 10 17 28 0 18 -15 49 -17 321 -17 166 0 302 3 302 7 0 24 -460
495 -590 604 -36 29 -102 88 -147 130 -152 140 -383 284 -598 374 -60 26 -126
53 -145 61 -19 8 -64 41 -99 73 l-63 57 10 47 c6 31 6 62 0 90 -5 23 -7 67 -4
97 3 30 6 119 7 198 1 118 -2 147 -15 161 -9 10 -16 35 -16 59 0 35 -5 45 -32
65 -70 53 -96 60 -183 53 -67 -5 -108 -1 -232 23 -168 33 -292 46 -593 61
-233 12 -499 30 -518 36 -15 4 12 78 41 107 13 13 17 28 14 45 -7 35 25 183
52 245 21 50 28 112 12 121 -4 3 -6 27 -3 54 2 27 -1 59 -7 70 -9 17 -7 40 8
104 11 46 27 119 36 162 18 90 21 96 40 96 27 0 35 39 35 172 l1 133 55 42
c46 35 60 41 88 36 48 -8 97 39 147 141 22 44 50 99 62 121 19 34 22 54 21
140 -1 82 -8 121 -37 220 -19 66 -37 149 -40 185 -3 36 -24 123 -47 194 -38
119 -42 139 -47 273 -6 135 -7 145 -29 162 l-24 19 21 83 c12 46 30 92 40 102
18 17 19 17 39 -3 25 -25 32 -25 61 -1 24 19 24 21 24 223 -1 146 -6 234 -19
314 -18 111 -18 112 3 195 27 106 28 183 3 201 -14 10 -21 37 -31 113 -14 122
-36 213 -67 282 -13 28 -24 59 -24 67 0 44 -57 152 -110 210 -31 33 -78 90
-105 126 -112 146 -234 233 -417 294 -253 84 -402 86 -575 6 -45 -21 -83 -37
-83 -35 0 15 87 81 145 110 85 41 168 61 298 70 100 8 127 19 127 54 0 32 -22
41 -105 41 -227 0 -444 -91 -554 -233 l-46 -59 -6 103 c-5 80 -14 126 -39 199
-72 210 -201 424 -329 548 -59 56 -79 62 -104 34z m-563 -478 c19 -7 21 -38 4
-51 -7 -6 -78 -31 -157 -57 -235 -75 -680 -303 -801 -410 -20 -17 -51 -42 -70
-56 -145 -107 -340 -274 -509 -436 -69 -66 -162 -152 -206 -190 -44 -37 -100
-87 -125 -109 -175 -161 -262 -229 -281 -223 -7 2 16 29 50 58 34 30 189 181
344 335 155 154 302 297 327 319 25 21 93 84 152 138 237 222 421 353 688 491
206 106 296 141 435 171 126 28 128 28 149 20z m2006 -544 c14 -11 22 -20 18
-20 -14 0 -58 23 -58 32 0 13 13 9 40 -12z m-1960 -169 c0 -22 -72 -51 -190
-77 -99 -22 -188 -70 -345 -189 -207 -157 -282 -220 -500 -426 -128 -121 -278
-232 -349 -259 -12 -4 -59 -29 -105 -54 -75 -41 -151 -68 -151 -52 0 11 108
113 240 227 69 59 170 153 225 209 55 56 127 125 159 153 32 29 95 85 140 126
82 74 288 216 387 266 97 50 286 90 437 94 45 1 52 -2 52 -18z m485 -36 c95
-33 180 -80 223 -123 23 -24 42 -49 42 -55 0 -7 -15 -22 -34 -34 -39 -25 -52
-67 -30 -101 19 -29 65 -27 78 4 6 12 43 37 90 60 79 37 83 38 181 36 109 -3
101 1 152 -77 47 -72 90 -168 122 -270 33 -108 90 -341 115 -470 13 -68 36
-179 121 -575 7 -36 11 -67 9 -70 -3 -2 -41 8 -84 24 -44 15 -94 32 -112 36
-18 5 -58 15 -88 23 -104 29 -295 66 -425 83 -110 14 -184 16 -485 11 -426 -8
-860 -43 -1188 -98 -68 -12 -126 -19 -129 -16 -2 3 13 29 34 59 55 74 107 165
212 373 97 194 197 384 250 480 95 170 117 204 161 245 26 25 87 82 136 128
48 46 141 126 206 179 65 52 121 99 124 104 9 16 79 57 105 62 44 10 164 0
214 -18z m359 -99 c9 -14 16 -28 16 -32 0 -11 -50 38 -62 59 -8 16 -7 17 10 8
10 -6 27 -21 36 -35z m555 -381 l0 -20 -9 20 c-5 11 -9 29 -9 40 l0 20 9 -20
c5 -11 9 -29 9 -40z m790 -674 c1 -35 -5 -22 -12 24 -5 28 -4 34 3 20 5 -11 9
-31 9 -44z m-3052 -68 c-52 -117 -143 -270 -154 -259 -3 3 -1 11 4 18 6 7 19
35 29 63 10 27 32 67 49 90 17 22 41 57 54 78 27 44 35 48 18 10z m3328 -302
c-5 -49 -10 -69 -16 -60 -12 19 -11 51 3 128 16 83 23 42 13 -68z m-817 -41
c0 -28 -3 -23 -14 25 -17 75 -16 90 1 45 7 -19 13 -51 13 -70z m9 -72 c-3 -7
-5 -2 -5 12 0 14 2 19 5 13 2 -7 2 -19 0 -25z m-1323 -47 c3 -4 -56 -11 -132
-14 -162 -8 -269 -27 -335 -62 -27 -14 -54 -22 -60 -19 -19 11 -57 47 -57 54
0 4 35 10 78 15 42 4 133 13 202 20 151 15 297 18 304 6z m390 -21 c34 -5 160
-23 281 -40 197 -27 280 -40 353 -56 13 -3 22 -12 22 -23 0 -36 25 -48 121
-55 51 -4 98 -11 105 -16 6 -6 23 -76 39 -157 27 -144 39 -173 72 -173 7 0 22
9 33 20 21 21 22 12 -11 179 -10 52 -16 97 -14 99 2 3 24 -7 49 -22 24 -14 53
-26 64 -26 18 0 20 -10 24 -142 3 -89 14 -190 28 -266 l24 -123 -22 -42 c-83
-162 -138 -241 -225 -324 -109 -103 -156 -139 -227 -172 -76 -36 -91 -38 -107
-12 -10 15 -28 19 -105 23 -92 5 -122 13 -288 85 -72 31 -208 131 -290 213
-66 65 -98 108 -140 185 -66 119 -119 241 -120 273 l0 22 173 -1 c94 0 195 -5
222 -11 90 -18 358 -119 474 -179 63 -32 127 -59 141 -59 37 0 63 32 58 70 -5
34 -3 35 32 15 14 -8 34 -14 44 -15 11 0 42 -11 70 -24 70 -32 140 -50 169
-42 29 7 52 55 43 90 -6 26 -32 43 -176 112 -131 63 -224 99 -365 138 -217 62
-274 70 -465 71 -159 0 -179 -2 -220 -22 -34 -16 -68 -22 -140 -25 l-95 -3 3
50 c1 28 4 82 6 120 1 39 6 84 10 101 6 28 10 31 49 30 36 -1 42 2 51 26 8 23
6 32 -12 51 -27 28 -21 37 22 30 23 -4 36 0 50 16 22 24 87 28 190 11z m-1124
-83 c30 -15 70 -41 89 -57 29 -25 32 -31 21 -45 -7 -9 -10 -27 -7 -45 4 -16 2
-87 -3 -157 -10 -135 -33 -217 -122 -428 -112 -263 -282 -453 -471 -523 -84
-32 -276 -31 -442 2 -137 27 -353 112 -444 174 -135 92 -221 258 -237 457 -5
69 -3 93 15 153 27 86 47 114 107 142 l45 22 20 -21 c28 -29 52 -26 119 14 32
20 83 44 112 54 30 10 72 28 93 39 62 31 358 129 475 156 189 45 250 56 318
56 46 0 80 7 107 20 55 27 133 22 205 -13z m654 -36 c3 -4 -3 -59 -14 -122
-21 -123 -20 -145 16 -289 38 -151 59 -220 94 -300 37 -85 48 -103 111 -185
25 -33 52 -71 59 -85 33 -66 98 -135 214 -229 140 -113 193 -143 285 -165 91
-21 139 -74 128 -142 -13 -79 -88 -127 -229 -144 -157 -19 -297 -48 -351 -73
-71 -32 -158 -122 -195 -200 -41 -87 -104 -136 -208 -163 -99 -25 -236 -14
-330 27 -52 24 -119 80 -139 118 -29 57 -111 126 -166 141 -23 6 -147 13 -276
15 -225 3 -235 4 -258 25 -47 44 -58 167 -21 238 25 49 83 102 111 102 33 0
68 35 60 61 -5 14 0 21 21 29 88 34 195 114 326 247 139 140 170 178 212 262
40 77 101 239 133 351 54 187 67 267 55 351 -7 51 -6 59 14 83 31 35 108 51
266 54 42 1 79 -2 82 -7z m-2640 -727 c3 -26 6 -61 5 -78 -1 -30 -1 -30 -8 -6
-14 45 -22 130 -13 130 5 0 12 -21 16 -46z m283 -173 c-20 -8 -26 16 -14 54
l12 40 5 -45 c3 -25 1 -47 -3 -49z m4139 -215 l25 -61 -16 -165 c-9 -91 -22
-210 -30 -265 -8 -55 -17 -140 -21 -188 -6 -77 -13 -102 -59 -205 -42 -91 -58
-118 -78 -125 -18 -6 -33 -27 -57 -80 -17 -40 -49 -95 -70 -123 -62 -82 -164
-234 -209 -310 -35 -60 -101 -137 -101 -119 0 3 13 32 29 64 17 32 40 89 52
127 12 38 31 86 41 108 35 70 48 129 48 227 0 108 -28 224 -80 338 -17 35 -30
78 -30 95 0 47 -32 162 -64 229 -15 32 -53 85 -83 117 l-55 60 32 0 c44 0 134
27 200 60 137 69 350 268 415 388 l39 73 23 -92 c14 -51 35 -120 49 -153z m64
214 c0 -6 11 -27 24 -48 13 -20 27 -58 31 -84 6 -43 4 -48 -13 -48 -15 0 -23
15 -40 74 -24 81 -27 116 -12 116 6 0 10 -5 10 -10z m-4052 -138 c85 -107 372
-250 587 -291 58 -12 119 -21 135 -21 19 0 38 -10 54 -27 23 -25 24 -28 9 -45
-8 -10 -13 -26 -10 -38 4 -15 -15 -40 -82 -107 -138 -140 -192 -233 -262 -451
-13 -40 -32 -80 -41 -89 -13 -12 -18 -31 -18 -74 0 -52 -2 -58 -22 -61 -32 -4
-48 -43 -48 -119 0 -80 25 -166 87 -298 67 -144 94 -212 90 -224 -2 -6 -12 2
-22 18 -34 54 -107 140 -132 156 -28 19 -67 73 -78 109 -10 34 -53 110 -78
137 -11 13 -30 46 -41 75 -18 44 -26 54 -50 58 -29 5 -31 9 -52 105 -13 55
-28 118 -34 140 -6 22 -18 67 -26 100 -8 32 -22 67 -31 77 -23 26 -70 23 -97
-7 -13 -14 -28 -25 -34 -25 -30 0 -28 126 7 490 12 118 21 225 21 237 l0 22
25 -24 c28 -29 34 -30 59 -12 22 16 35 75 36 160 0 37 4 67 9 67 5 0 23 -17
39 -38z m-267 -59 c-9 -16 -10 -15 -11 8 0 14 3 29 8 33 12 12 14 -22 3 -41z
m116 -60 c-3 -10 -5 -4 -5 12 0 17 2 24 5 18 2 -7 2 -21 0 -30z m-134 -43 c-3
-12 -8 -19 -11 -16 -5 6 5 36 12 36 2 0 2 -9 -1 -20z m4643 -8 c-8 -15 -24
-36 -36 -47 l-23 -20 18 35 c22 43 35 60 46 60 5 0 3 -12 -5 -28z m-3479 -208
c-3 -3 -12 -4 -19 -1 -8 3 -5 6 6 6 11 1 17 -2 13 -5z m2411 -262 c25 -75 35
-136 27 -162 -9 -27 -21 -25 -29 4 -14 57 -73 75 -101 32 -16 -24 -17 -24 -45
-8 -28 16 -30 16 -57 -5 -68 -54 -81 -56 -178 -28 -48 14 -99 25 -113 25 -55
0 -8 12 100 26 172 23 273 82 317 185 l23 52 18 -31 c11 -17 28 -58 38 -90z
m-2490 7 c1 -35 10 -71 31 -114 45 -97 73 -110 271 -121 72 -4 130 -11 130
-15 0 -8 -22 -13 -42 -10 -3 0 -31 -8 -61 -18 -108 -38 -161 -44 -214 -26 -26
9 -66 16 -88 15 -57 -3 -58 -2 -41 22 55 77 -27 133 -136 94 -21 -8 -38 -10
-38 -5 0 16 68 114 114 164 25 28 45 53 46 58 0 4 6 7 14 7 10 0 14 -14 14
-51z m-198 -339 c0 -5 -4 -10 -10 -10 -5 0 -10 5 -10 10 0 6 5 10 10 10 6 0
10 -4 10 -10z m1983 -151 c52 -21 86 -18 112 11 13 14 23 17 40 10 13 -5 59
-5 107 0 45 4 84 7 86 6 1 -2 -60 -20 -135 -41 -91 -25 -174 -40 -243 -46 -58
-4 -145 -15 -195 -23 -49 -9 -108 -16 -130 -16 l-40 0 41 40 c39 40 41 41 70
25 59 -31 154 -12 190 39 12 16 25 23 34 19 8 -3 37 -14 63 -24z m622 -51
c-10 -49 -24 -66 -139 -173 -145 -136 -319 -258 -476 -336 -113 -56 -207 -76
-430 -89 -107 -6 -228 -15 -268 -21 -136 -17 -294 -11 -431 16 -210 43 -419
118 -505 183 -28 21 -69 49 -91 62 -22 13 -53 34 -69 47 -16 13 -50 35 -75 48
-25 13 -56 32 -68 42 -22 18 -21 18 65 20 48 1 164 4 257 7 328 10 581 18 715
20 344 7 629 18 675 26 28 5 106 14 175 20 129 12 428 81 575 134 93 34 98 33
90 -6z m-2023 -65 c8 -10 -14 -13 -108 -13 -92 0 -115 3 -106 12 7 7 27 11 45
10 20 -1 54 10 92 31 l60 32 3 -30 c2 -16 8 -36 14 -42z m428 37 l21 -30 -78
0 -78 0 50 30 c28 16 53 30 57 30 4 0 16 -13 28 -30z m-778 -25 c-4 -31 -7
-34 -51 -40 -39 -5 -209 10 -219 19 -4 5 45 35 73 46 19 7 25 6 25 -4 0 -7 9
-21 19 -30 26 -23 60 -12 72 23 8 23 14 26 47 23 36 -4 38 -5 34 -37z m1096
16 c12 -6 22 -14 22 -16 0 -3 -62 -4 -137 -4 -81 1 -124 4 -103 8 19 4 43 11
52 17 23 12 140 9 166 -5z m-638 -21 c-6 -11 -17 -20 -25 -20 -20 0 -19 10 3
26 25 19 34 17 22 -6z m1890 -331 c0 -17 8 -44 17 -60 16 -27 16 -31 -3 -76
l-20 -48 -204 -3 -204 -2 119 79 c66 43 149 103 184 133 l63 55 24 -24 c15
-15 24 -36 24 -54z m-2554 36 c65 -38 110 -67 229 -152 44 -31 105 -67 136
-80 30 -12 69 -29 85 -38 28 -14 25 -15 -67 -15 -53 0 -150 -3 -217 -6 l-120
-7 -56 111 c-31 61 -53 117 -50 125 2 7 0 26 -5 40 -9 22 -6 57 4 57 1 0 29
-16 61 -35z m5549 -1688 c141 -85 228 -152 321 -248 168 -174 203 -218 134
-169 -15 11 -38 24 -51 30 -87 37 -200 128 -367 292 -99 98 -170 172 -158 166
11 -6 66 -38 121 -71z"/>
<path d="M5205 6311 c-134 -36 -515 -194 -616 -257 -20 -13 -62 -30 -94 -39
-88 -26 -116 -63 -74 -101 12 -10 25 -29 30 -42 5 -12 21 -27 36 -33 22 -8 39
-4 111 31 47 22 99 40 118 40 20 0 41 8 51 19 10 10 45 30 78 44 33 14 89 37
124 52 35 15 177 55 315 90 138 35 263 68 278 74 15 6 35 8 43 5 22 -9 94 42
101 71 4 17 1 32 -11 45 -15 17 -34 18 -218 19 -165 0 -215 -3 -272 -18z"/>
</g>
</svg>
